<svg height="100" viewBox="-6 -6 112 112" width="100" xmlns="http://www.w3.org/2000/svg"><title>Wudang bP Xiangqi piece</title><defs>
  <radialGradient id="pigment" cx=".34" cy=".27" r=".76">
    <stop offset="0" stop-color="#2e3c3e"/>
    <stop offset=".56" stop-color="#152022"/>
    <stop offset="1" stop-color="#090f10"/>
  </radialGradient>
  <filter id="edge" x="-8%" y="-8%" width="116%" height="116%">
    <feTurbulence type="fractalNoise" baseFrequency=".055" numOctaves="2" seed="23" result="rough"/>
    <feDisplacementMap in="SourceGraphic" in2="rough" scale="1.15" xChannelSelector="R" yChannelSelector="G"/>
  </filter>
</defs><ellipse cx="50" cy="53" rx="44.5" ry="45" fill="#071011" opacity=".26"/>
<circle cx="50" cy="50" r="47.2" fill="url(#pigment)" stroke="#050a0b" stroke-width="3.4" stroke-dasharray="117 7 38 4 73 8 31 5" stroke-linecap="round" filter="url(#edge)"/>
<circle cx="50" cy="50" r="42.8" fill="none" stroke="#f0ece2" stroke-opacity=".18" stroke-width="1.5" stroke-dasharray="92 4 44 8 69 5 30 7"/>
<g stroke="#f0ece2" stroke-opacity=".075" stroke-width="2.1" stroke-linecap="round">
  <line x1="19" y1="22" x2="56" y2="8"/>
  <line x1="81" y1="77" x2="45" y2="92"/>
</g><path fill="#f0ece2" stroke="#0d1516" stroke-opacity=".24" stroke-width=".3" paint-order="stroke fill" d="m29.9 4.4c-.3.6 1.6 4.5 3.2 7l.8 1.1-3.8.4c-2 .3-6.1.6-9 .7-5.4.3-6.4.6-6.4 1.8 0 .3.3.9.7 1.3.6.5 1.4.6 4.8.8 2.3 0 6.3-.1 9-.3 9.3-.8 22.4-2.2 24.1-2.5 3-.7 3.5-2.6 1-3.8-2.2-1.2-3.9-1.3-6.9-.5-1.5.4-4 .9-5.6 1l-2.8.2v-1.8c0-1.5-.1-1.9-1.2-3-.8-.8-2.2-1.6-3.6-2.1-2.8-1-4-1.1-4.3-.3m13.7 12.3c-.1.1-.2.7-.2 1.3 0 2.3-1.6 6.2-5.1 12.8-.4.7-.7 1.3-.7 1.3 0 .1-1.1-.1-2.4-.5-1.9-.4-2.4-.5-2.8-.1-.6.5-.6.5-1.2-.9-.6-1.6-2.2-3-4.2-3.6l-1.8-.6 1.6-1.6c2.1-2 2.8-3.3 2.2-4.1-1-1.2-1.9-1.8-3.7-2.4-2.2-.7-2.7-.4-3 1.8-.3 2.9-3.2 7.7-7.6 12.4-1.5 1.7-1.7 3-.5 3.1 1 .2 4.9-2.3 7.2-4.5l2-2.1.9 1.6c1.1 1.8 3 3.6 4.2 3.9 1 .3 2.2-.3 2.5-1.2.6-1.9 1.2 0 1.2 3.8v2.4l-2.5.2c-1.4.1-5 .4-8 .7s-7.7.7-10.5.8c-4.5.2-5.1.3-5.2.9-.2.9 1.5 2.6 3.3 3.3 1.8.6 3.4.5 10.3-.7 2.8-.5 6.8-1 8.8-1.1l3.8-.3v11.5c-.1 12.1 0 13.2 1.5 13.6.3.2.9.1 1.2-.2 1.7-1.4 2.4-5.4 2.9-16.1.3-4.9.5-9 .6-9.1.1 0 5.7-.2 12.5-.3 6.7-.1 12.5-.3 12.9-.5.7-.3 1-1.2.8-2-.3-.8-3.3-2.2-5.5-2.7-1.4-.3-2.7-.3-6.2.3-2.4.3-6.7.7-9.4.9-5.7.2-5.6.3-4.4-2.7.4-1.1.5-1.6.2-2.1s-.1-.7 1.2-1.7c.9-.7 2.3-1.9 3.1-2.7l1.5-1.6 2 2.4c4.2 4.8 7.6 5.3 8.1 1.3.3-2.4-2-4.3-6.3-5.5-1.2-.3-2.1-.6-2.2-.6-.1-.1.7-1.4 1.8-2.8 1-1.4 1.9-2.7 1.9-2.9 0-.5-1.9-2-3.4-2.7-1.6-.7-2.9-.8-3.4-.4" transform="translate(15 14)"/></svg>
